<svg width="72" height="10" viewBox="0 0 72 10" fill="none" xmlns="http://www.w3.org/2000/svg">
<path d="M4.71429 8.09524H8.52381V10H0.904762V0.476191H4.71429V8.09524ZM13.8981 10V8.09524H11.9933V2.38095H13.8981V0.476191H19.6124V2.38095H21.5171V8.09524H19.6124V10H13.8981ZM15.8028 8.09524H17.7076V2.38095H15.8028V8.09524ZM26.8929 10V8.09524H24.9881V2.38095H26.8929V0.476191H34.5119V2.38095H28.7976V8.09524H30.7024V4.28571H34.5119V8.09524H32.6071V10H26.8929ZM39.8876 10V8.09524H37.9829V2.38095H39.8876V0.476191H45.6019V2.38095H47.5067V8.09524H45.6019V10H39.8876ZM41.7924 8.09524H43.6972V2.38095H41.7924V8.09524ZM52.8824 10V8.09524H50.9777V0.476191H54.7872V8.09524H56.692V0.476191H60.5015V8.09524H58.5967V10H52.8824ZM65.8772 10V2.38095H63.9725V0.476191H71.5915V2.38095H69.6868V10H65.8772Z" fill="#250C23"/>
</svg>
