<svg width="127" height="12" viewBox="0 0 127 12" fill="none" xmlns="http://www.w3.org/2000/svg">
<path d="M2.7619 12V9.61905H0.380952V0.0952382H5.14286V9.61905H7.52381V0.0952382H12.2857V9.61905H9.90476V12H2.7619ZM16.7078 12V9.61905H23.8506V7.2381H19.0887V4.85714H16.7078V2.47619H19.0887V0.0952382H28.6125V2.47619H21.4697V4.85714H26.2316V7.2381H28.6125V9.61905H26.2316V12H16.7078ZM42.5584 2.47619H37.7965V4.85714H42.5584V7.2381H37.7965V9.61905H42.5584V12H33.0346V0.0952382H42.5584V2.47619ZM46.9786 12V0.0952382H56.5024V2.47619H58.8834V4.85714H56.5024V9.61905H58.8834V12H54.1215V9.61905H51.7405V12H46.9786ZM51.7405 4.85714H54.1215V2.47619H51.7405V4.85714ZM63.3054 12V0.0952382H68.0673V2.47619H70.4483V4.85714H72.8292V0.0952382H77.5911V12H72.8292V9.61905H70.4483V7.2381H68.0673V12H63.3054ZM91.5389 2.47619H93.9198V12H89.1579V7.2381H86.777V12H82.0151V2.47619H84.396V0.0952382H91.5389V2.47619ZM86.777 4.85714H89.1579V2.47619H86.777V4.85714ZM98.3419 12V0.0952382H103.104V2.47619H107.866V0.0952382H112.628V12H107.866V7.2381H103.104V12H98.3419ZM126.575 2.47619H121.813V4.85714H126.575V7.2381H121.813V9.61905H126.575V12H117.052V0.0952382H126.575V2.47619Z" fill="white"/>
</svg>
